<svg xmlns="http://www.w3.org/2000/svg" xmlns:xlink="http://www.w3.org/1999/xlink" version="1.1" x="0px" y="0px" viewBox="0 0 100 125" style="enable-background:new 0 0 100 100;" xml:space="preserve"><style type="text/css">
	.st0{fill:none;stroke:#000000;stroke-width:2;stroke-linecap:round;stroke-linejoin:round;stroke-miterlimit:10;}
	.st1{fill:none;stroke:#000000;stroke-width:2;stroke-miterlimit:10;}
</style><circle cx="63.7" cy="73.5" r="1.4"/><circle cx="38" cy="81.6" r="1.4"/><circle cx="48.2" cy="75.6" r="1.4"/><circle cx="67" cy="80.9" r="1.4"/><circle cx="53.6" cy="80.5" r="1.4"/><circle cx="40.9" cy="74.2" r="1.4"/><circle cx="31.8" cy="73.5" r="1.4"/><circle cx="70.2" cy="74.5" r="1.1"/><circle cx="58.5" cy="77.7" r="1.1"/><circle cx="44.9" cy="80.5" r="1.1"/><circle cx="61.7" cy="80.9" r="1.1"/><circle cx="31.8" cy="79.1" r="1.1"/><circle cx="36.2" cy="76.6" r="1.1"/><circle cx="54.2" cy="74.2" r="1.1"/><path d="M29,85.5c0.1,0.4,0.5,0.7,1,0.7h40.7c0.4,0,0.8-0.3,1-0.7l12.6-38.7c0.1-0.4,0-0.9-0.4-1.1L52.6,23.1c2-0.9,3.5-3,3.5-5.3  c0-3.2-2.6-5.8-5.8-5.8s-5.8,2.6-5.8,5.8c0,2.4,1.4,4.4,3.5,5.3L16.8,45.7c-0.4,0.3-0.5,0.7-0.4,1.1L29,85.5z M69.9,84.2H30.6  l-4.5-14h48.3L69.9,84.2z M50.9,53.6c0.1-1.4,0.4-3.6,1.8-5.1c1.5-1.6,4-1.9,5.3-2c0,1.3-0.3,3.8-1.8,5.4c-1.5,1.6-4,1.9-5.3,2V53.6  z M49.9,43.4c-0.7-0.8-1.6-2.2-1.6-3.6c0-1.5,1-2.8,1.7-3.6c0.7,0.8,1.6,2.2,1.6,3.6C51.5,41.3,50.6,42.6,49.9,43.4z M46.4,17.8  c0-2.1,1.7-3.8,3.8-3.8s3.8,1.7,3.8,3.8c0,2.1-1.7,3.8-3.8,3.8c0,0,0,0-0.1,0C48.1,21.6,46.4,19.9,46.4,17.8z M50.2,23.8L82,46.9  l-6.9,21.3H59c0.6-0.4,1.1-0.8,1.6-1.3c3.9-3.8,3.5-10.4,3.5-10.7c0-0.5-0.4-0.9-0.9-0.9c-0.3,0-6.8-0.6-10.8,3.2  c-0.6,0.6-1.1,1.3-1.5,2v-4.7c1.6-0.1,4.7-0.5,6.8-2.6c2.8-2.9,2.4-7.7,2.4-7.9c0-0.5-0.4-0.9-0.9-0.9c-0.2,0-5-0.3-7.8,2.6  c-0.1,0.1-0.3,0.3-0.4,0.4v-2.3c0.8-0.8,2.6-2.9,2.7-5.4c0-3.2-2.8-5.7-3-5.8c-0.4-0.3-0.9-0.3-1.3,0c-0.1,0.1-3,2.6-3.1,5.8  c0,2.6,1.9,4.8,2.6,5.5v2.4c-0.2-0.2-0.4-0.5-0.6-0.7c-2.9-2.8-7.7-2.4-7.9-2.4c-0.5,0-0.9,0.4-0.9,0.9c0,0.2-0.3,5,2.6,7.8  c2.1,2,5.2,2.4,6.8,2.4v4.8c-0.4-0.7-0.9-1.4-1.5-2c-3.9-3.8-10.5-3.2-10.8-3.2c-0.5,0-0.9,0.4-0.9,0.9c0,0.3-0.4,6.8,3.5,10.7  c0.5,0.5,1.1,0.9,1.6,1.3H25.4l-6.9-21.3L50.2,23.8z M50.9,68.2c0-1.8,0.4-5.8,2.9-8.2c2.5-2.4,6.5-2.7,8.3-2.7  c0,1.8-0.4,5.8-2.9,8.2C56.7,68,52.7,68.2,50.9,68.2z M48.9,53.8c-1.3,0-3.8-0.3-5.4-1.8c-1.6-1.5-1.9-4-2-5.3  c1.3,0,3.8,0.3,5.4,1.8C48.5,50,48.8,52.4,48.9,53.8z M48.9,68.2c-1.8,0-5.8-0.3-8.3-2.7c-2.5-2.4-2.9-6.4-2.9-8.2  c1.7,0,5.8,0.3,8.3,2.7C48.5,62.5,48.8,66.5,48.9,68.2z"/><text x="0" y="115" fill="#000000" font-size="5px" font-weight="bold" font-family="'Helvetica Neue', Helvetica, Arial-Unicode, Arial, Sans-serif">Created by Made by Made</text><text x="0" y="120" fill="#000000" font-size="5px" font-weight="bold" font-family="'Helvetica Neue', Helvetica, Arial-Unicode, Arial, Sans-serif">from the Noun Project</text></svg>